<svg width="146" height="45" viewBox="0 0 146 45" fill="none" xmlns="http://www.w3.org/2000/svg">
<rect x="1" y="0.855469" width="144.5" height="43" rx="4.5" fill="black"/>
<rect x="1" y="0.855469" width="144.5" height="43" rx="4.5" stroke="#A6A6A6"/>
<path d="M73.9357 24.2799C71.4008 24.2799 69.3346 26.2478 69.3346 28.9582C69.3346 31.6521 71.4008 33.6365 73.9357 33.6365C76.4717 33.6365 78.5378 31.6521 78.5378 28.9582C78.5367 26.2478 76.4706 24.2799 73.9357 24.2799ZM73.9357 31.7951C72.5464 31.7951 71.349 30.6258 71.349 28.9593C71.349 27.2752 72.5475 26.1235 73.9357 26.1235C75.3249 26.1235 76.5224 27.2752 76.5224 28.9593C76.5224 30.6247 75.3249 31.7951 73.9357 31.7951ZM63.8973 24.2799C61.3623 24.2799 59.2962 26.2478 59.2962 28.9582C59.2962 31.6521 61.3623 33.6365 63.8973 33.6365C66.4333 33.6365 68.4994 31.6521 68.4994 28.9582C68.4994 26.2478 66.4333 24.2799 63.8973 24.2799ZM63.8973 31.7951C62.508 31.7951 61.3106 30.6258 61.3106 28.9593C61.3106 27.2752 62.5091 26.1235 63.8973 26.1235C65.2865 26.1235 66.4839 27.2752 66.4839 28.9593C66.485 30.6247 65.2865 31.7951 63.8973 31.7951ZM51.9576 25.7165V27.7009H56.6115C56.4725 28.8174 56.1082 29.6325 55.552 30.199C54.8752 30.8898 53.8157 31.6521 51.9576 31.6521C49.0929 31.6521 46.8533 29.2948 46.8533 26.371C46.8533 23.4472 49.0929 21.0899 51.9576 21.0899C53.5032 21.0899 54.6316 21.7103 55.4647 22.5078L56.8367 21.1075C55.6727 19.9734 54.1283 19.1055 51.9576 19.1055C48.0335 19.1055 44.7344 22.3659 44.7344 26.371C44.7344 30.3761 48.0335 33.6365 51.9576 33.6365C54.0755 33.6365 55.6738 32.927 56.923 31.5982C58.2077 30.287 58.6075 28.4434 58.6075 26.9551C58.6075 26.4953 58.573 26.0696 58.503 25.7154H51.9576V25.7165ZM100.79 27.2576C100.408 26.2126 99.2441 24.2799 96.8654 24.2799C94.504 24.2799 92.5414 26.1763 92.5414 28.9582C92.5414 31.5806 94.4868 33.6365 97.0907 33.6365C99.1913 33.6365 100.407 32.3253 100.911 31.563L99.3486 30.4993C98.828 31.2792 98.1156 31.7929 97.0907 31.7929C96.0668 31.7929 95.3371 31.3144 94.8683 30.375L100.998 27.7878L100.79 27.2576ZM94.5385 28.8174C94.4868 27.009 95.9105 26.0883 96.9355 26.0883C97.7341 26.0883 98.4109 26.4964 98.6373 27.0805L94.5385 28.8174ZM89.5559 33.3538H91.5692V19.6027H89.5559V33.3538ZM86.2558 25.326H86.1868C85.7352 24.776 84.8665 24.2799 83.7736 24.2799C81.4812 24.2799 79.3806 26.3358 79.3806 28.9769C79.3806 31.5993 81.4812 33.6376 83.7736 33.6376C84.8676 33.6376 85.7352 33.1415 86.1868 32.575H86.2558V33.2482C86.2558 35.0379 85.3181 35.9949 83.8081 35.9949C82.5751 35.9949 81.811 35.0918 81.4985 34.3295L79.7449 35.0742C80.2482 36.3139 81.5847 37.8385 83.8081 37.8385C86.1695 37.8385 88.1667 36.4206 88.1667 32.9644V24.5648H86.2568V25.326H86.2558ZM83.9472 31.7951C82.5579 31.7951 81.395 30.6071 81.395 28.9769C81.395 27.328 82.5579 26.1235 83.9472 26.1235C85.3181 26.1235 86.3948 27.328 86.3948 28.9769C86.3948 30.6071 85.3181 31.7951 83.9472 31.7951ZM110.224 19.6027H105.406V33.3538H107.416V28.1442H110.223C112.452 28.1442 114.644 26.4975 114.644 23.874C114.644 21.2505 112.453 19.6027 110.224 19.6027ZM110.276 26.2302H107.416V21.5167H110.276C111.78 21.5167 112.633 22.7872 112.633 23.874C112.633 24.9388 111.78 26.2302 110.276 26.2302ZM122.705 24.2557C121.249 24.2557 119.741 24.9102 119.117 26.3611L120.902 27.1212C121.284 26.3611 121.995 26.1125 122.74 26.1125C123.78 26.1125 124.837 26.7494 124.854 27.8813V28.0232C124.49 27.8109 123.71 27.493 122.757 27.493C120.833 27.493 118.874 28.5721 118.874 30.5884C118.874 32.4287 120.451 33.6134 122.219 33.6134C123.571 33.6134 124.316 32.9941 124.784 32.2681H124.853V33.3296H126.795V28.0573C126.796 25.6175 125.009 24.2557 122.705 24.2557ZM122.462 31.7918C121.804 31.7918 120.885 31.4552 120.885 30.6236C120.885 29.5621 122.029 29.1551 123.018 29.1551C123.9 29.1551 124.317 29.3498 124.854 29.6149C124.698 30.8898 123.623 31.7918 122.462 31.7918ZM133.868 24.556L131.562 30.518H131.493L129.101 24.556H126.934L130.522 32.8885L128.477 37.5239H130.574L136.104 24.556H133.868ZM115.755 33.3538H117.765V19.6027H115.755V33.3538Z" fill="white"/>
<path d="M51.6062 11.622C51.6062 12.5438 51.3389 13.2775 50.8032 13.8253C50.1953 14.4765 49.4021 14.8021 48.4278 14.8021C47.4944 14.8021 46.7001 14.4721 46.0481 13.8121C45.3949 13.151 45.0684 12.3326 45.0684 11.3558C45.0684 10.3779 45.3949 9.5595 46.0481 8.8995C46.7001 8.2384 47.4944 7.9084 48.4278 7.9084C48.8912 7.9084 49.3342 8.0008 49.7545 8.1845C50.1759 8.3693 50.5133 8.6146 50.7655 8.9215L50.1975 9.5023C49.7696 8.9798 49.1801 8.7191 48.4267 8.7191C47.7456 8.7191 47.1571 8.9633 46.6602 9.4517C46.1634 9.9401 45.9155 10.5748 45.9155 11.3547C45.9155 12.1346 46.1634 12.7693 46.6602 13.2577C47.1571 13.7461 47.7456 13.9903 48.4267 13.9903C49.1488 13.9903 49.7513 13.745 50.2331 13.2533C50.5456 12.9332 50.7267 12.4877 50.7752 11.9168H48.4267V11.1237H51.5598C51.5921 11.2964 51.6062 11.4625 51.6062 11.622Z" fill="white"/>
<path d="M56.5748 8.86546H53.6303V10.9577H56.286V11.7508H53.6303V13.843H56.5748V14.6548H52.7994V8.05476H56.5748V8.86546Z" fill="white"/>
<path d="M60.0785 14.6548H59.2476V8.86546H57.4412V8.05476H61.8849V8.86546H60.0785V14.6548Z" fill="white"/>
<path d="M65.0999 14.6548V8.05476H65.9308V14.6548H65.0999Z" fill="white"/>
<path d="M69.6159 14.6548H68.785V8.86546H66.9786V8.05476H71.4223V8.86546H69.6159V14.6548Z" fill="white"/>
<path d="M79.8341 13.8023C79.1982 14.4689 78.4082 14.8022 77.463 14.8022C76.5178 14.8022 75.7278 14.4689 75.093 13.8023C74.4571 13.1357 74.1402 12.3194 74.1402 11.3547C74.1402 10.3901 74.4571 9.57385 75.093 8.90725C75.7278 8.24065 76.5178 7.90625 77.463 7.90625C78.4028 7.90625 79.1917 8.24175 79.8298 8.91165C80.4678 9.58155 80.7869 10.3956 80.7869 11.3547C80.7869 12.3194 80.4689 13.1357 79.8341 13.8023ZM75.7062 13.249C76.1847 13.7439 76.77 13.9903 77.463 13.9903C78.156 13.9903 78.7423 13.7428 79.2198 13.249C79.6983 12.754 79.9386 12.1226 79.9386 11.3547C79.9386 10.587 79.6983 9.95555 79.2198 9.46055C78.7423 8.96555 78.156 8.71915 77.463 8.71915C76.77 8.71915 76.1847 8.96665 75.7062 9.46055C75.2288 9.95555 74.9884 10.587 74.9884 11.3547C74.9884 12.1226 75.2288 12.754 75.7062 13.249Z" fill="white"/>
<path d="M81.953 14.6548V8.05476H82.964L86.1068 13.1885H86.1424L86.1068 11.9169V8.05476H86.9378V14.6548H86.0701L82.7819 9.27136H82.7463L82.7819 10.543V14.6548H81.953Z" fill="white"/>
<path d="M51.6062 11.622C51.6062 12.5438 51.3389 13.2775 50.8032 13.8253C50.1953 14.4765 49.4021 14.8021 48.4278 14.8021C47.4944 14.8021 46.7001 14.4721 46.0481 13.8121C45.3949 13.151 45.0684 12.3326 45.0684 11.3558C45.0684 10.3779 45.3949 9.5595 46.0481 8.8995C46.7001 8.2384 47.4944 7.9084 48.4278 7.9084C48.8912 7.9084 49.3342 8.0008 49.7545 8.1845C50.1759 8.3693 50.5133 8.6146 50.7655 8.9215L50.1975 9.5023C49.7696 8.9798 49.1801 8.7191 48.4267 8.7191C47.7456 8.7191 47.1571 8.9633 46.6602 9.4517C46.1634 9.9401 45.9155 10.5748 45.9155 11.3547C45.9155 12.1346 46.1634 12.7693 46.6602 13.2577C47.1571 13.7461 47.7456 13.9903 48.4267 13.9903C49.1488 13.9903 49.7513 13.745 50.2331 13.2533C50.5456 12.9332 50.7267 12.4877 50.7752 11.9168H48.4267V11.1237H51.5598C51.5921 11.2964 51.6062 11.4625 51.6062 11.622Z" stroke="white" stroke-width="0.2" stroke-miterlimit="10"/>
<path d="M56.5748 8.86546H53.6303V10.9577H56.286V11.7508H53.6303V13.843H56.5748V14.6548H52.7994V8.05476H56.5748V8.86546Z" stroke="white" stroke-width="0.2" stroke-miterlimit="10"/>
<path d="M60.0785 14.6548H59.2476V8.86546H57.4412V8.05476H61.8849V8.86546H60.0785V14.6548Z" stroke="white" stroke-width="0.2" stroke-miterlimit="10"/>
<path d="M65.0999 14.6548V8.05476H65.9308V14.6548H65.0999Z" stroke="white" stroke-width="0.2" stroke-miterlimit="10"/>
<path d="M69.6159 14.6548H68.785V8.86546H66.9786V8.05476H71.4223V8.86546H69.6159V14.6548Z" stroke="white" stroke-width="0.2" stroke-miterlimit="10"/>
<path d="M79.8341 13.8023C79.1982 14.4689 78.4082 14.8022 77.463 14.8022C76.5178 14.8022 75.7278 14.4689 75.093 13.8023C74.4571 13.1357 74.1402 12.3194 74.1402 11.3547C74.1402 10.3901 74.4571 9.57385 75.093 8.90725C75.7278 8.24065 76.5178 7.90625 77.463 7.90625C78.4028 7.90625 79.1917 8.24175 79.8298 8.91165C80.4678 9.58155 80.7869 10.3956 80.7869 11.3547C80.7869 12.3194 80.4689 13.1357 79.8341 13.8023ZM75.7062 13.249C76.1847 13.7439 76.77 13.9903 77.463 13.9903C78.156 13.9903 78.7423 13.7428 79.2198 13.249C79.6983 12.754 79.9386 12.1226 79.9386 11.3547C79.9386 10.587 79.6983 9.95555 79.2198 9.46055C78.7423 8.96555 78.156 8.71915 77.463 8.71915C76.77 8.71915 76.1847 8.96665 75.7062 9.46055C75.2288 9.95555 74.9884 10.587 74.9884 11.3547C74.9884 12.1226 75.2288 12.754 75.7062 13.249Z" stroke="white" stroke-width="0.2" stroke-miterlimit="10"/>
<path d="M81.953 14.6548V8.05476H82.964L86.1068 13.1885H86.1424L86.1068 11.9169V8.05476H86.9378V14.6548H86.0701L82.7819 9.27136H82.7463L82.7819 10.543V14.6548H81.953Z" stroke="white" stroke-width="0.2" stroke-miterlimit="10"/>
<g filter="url(#filter0_ii_1736_17380)">
<path d="M11.748 8.64671C11.4344 8.98551 11.249 9.51131 11.249 10.1922V34.5198C11.249 35.2018 11.4344 35.7265 11.748 36.0653L11.8278 36.1445L25.1804 22.5166V22.356V22.1954L11.8278 8.56641L11.748 8.64671Z" fill="url(#paint0_linear_1736_17380)"/>
<path d="M29.6306 27.0606L25.1804 22.5165V22.3559V22.1953L29.6316 17.6523L29.7319 17.7106L35.0054 20.7686C36.5111 21.642 36.5111 23.0709 35.0054 23.9454L29.7319 27.0034L29.6306 27.0606Z" fill="url(#paint1_linear_1736_17380)"/>
<g filter="url(#filter1_i_1736_17380)">
<path d="M29.7318 27.0019L25.1793 22.3555L11.748 36.0648C12.2438 36.6016 13.064 36.6676 13.9877 36.133L29.7318 27.0019Z" fill="url(#paint2_linear_1736_17380)"/>
</g>
<path d="M29.7318 17.7106L13.9877 8.58062C13.064 8.04492 12.2438 8.11202 11.748 8.64882L25.1804 22.3581L29.7318 17.7106Z" fill="url(#paint3_linear_1736_17380)"/>
</g>
<defs>
<filter id="filter0_ii_1736_17380" x="11.249" y="8.21094" width="24.8857" height="28.293" filterUnits="userSpaceOnUse" color-interpolation-filters="sRGB">
<feFlood flood-opacity="0" result="BackgroundImageFix"/>
<feBlend mode="normal" in="SourceGraphic" in2="BackgroundImageFix" result="shape"/>
<feColorMatrix in="SourceAlpha" type="matrix" values="0 0 0 0 0 0 0 0 0 0 0 0 0 0 0 0 0 0 127 0" result="hardAlpha"/>
<feOffset dy="-0.15"/>
<feComposite in2="hardAlpha" operator="arithmetic" k2="-1" k3="1"/>
<feColorMatrix type="matrix" values="0 0 0 0 0 0 0 0 0 0 0 0 0 0 0 0 0 0 0.12 0"/>
<feBlend mode="normal" in2="shape" result="effect1_innerShadow_1736_17380"/>
<feColorMatrix in="SourceAlpha" type="matrix" values="0 0 0 0 0 0 0 0 0 0 0 0 0 0 0 0 0 0 127 0" result="hardAlpha"/>
<feOffset dy="0.15"/>
<feComposite in2="hardAlpha" operator="arithmetic" k2="-1" k3="1"/>
<feColorMatrix type="matrix" values="0 0 0 0 1 0 0 0 0 1 0 0 0 0 1 0 0 0 0.25 0"/>
<feBlend mode="normal" in2="effect1_innerShadow_1736_17380" result="effect2_innerShadow_1736_17380"/>
</filter>
<filter id="filter1_i_1736_17380" x="11.748" y="22.3555" width="17.9839" height="14.1484" filterUnits="userSpaceOnUse" color-interpolation-filters="sRGB">
<feFlood flood-opacity="0" result="BackgroundImageFix"/>
<feBlend mode="normal" in="SourceGraphic" in2="BackgroundImageFix" result="shape"/>
<feColorMatrix in="SourceAlpha" type="matrix" values="0 0 0 0 0 0 0 0 0 0 0 0 0 0 0 0 0 0 127 0" result="hardAlpha"/>
<feOffset dy="-0.15"/>
<feComposite in2="hardAlpha" operator="arithmetic" k2="-1" k3="1"/>
<feColorMatrix type="matrix" values="0 0 0 0 0 0 0 0 0 0 0 0 0 0 0 0 0 0 0.08 0"/>
<feBlend mode="normal" in2="shape" result="effect1_innerShadow_1736_17380"/>
</filter>
<linearGradient id="paint0_linear_1736_17380" x1="23.9968" y1="9.93481" x2="5.54041" y2="28.0183" gradientUnits="userSpaceOnUse">
<stop stop-color="#00A0FF"/>
<stop offset="0.0066" stop-color="#00A1FF"/>
<stop offset="0.2601" stop-color="#00BEFF"/>
<stop offset="0.5122" stop-color="#00D2FF"/>
<stop offset="0.7604" stop-color="#00DFFF"/>
<stop offset="1" stop-color="#00E3FF"/>
</linearGradient>
<linearGradient id="paint1_linear_1736_17380" x1="36.9654" y1="22.3559" x2="10.8876" y2="22.3559" gradientUnits="userSpaceOnUse">
<stop stop-color="#FFE000"/>
<stop offset="0.4087" stop-color="#FFBD00"/>
<stop offset="0.7754" stop-color="#FFA500"/>
<stop offset="1" stop-color="#FF9C00"/>
</linearGradient>
<linearGradient id="paint2_linear_1736_17380" x1="27.2595" y1="24.8788" x2="2.2304" y2="49.4023" gradientUnits="userSpaceOnUse">
<stop stop-color="#FF3A44"/>
<stop offset="1" stop-color="#C31162"/>
</linearGradient>
<linearGradient id="paint3_linear_1736_17380" x1="8.36533" y1="0.5504" x2="19.5415" y2="11.5008" gradientUnits="userSpaceOnUse">
<stop stop-color="#32A071"/>
<stop offset="0.0685" stop-color="#2DA771"/>
<stop offset="0.4762" stop-color="#15CF74"/>
<stop offset="0.8009" stop-color="#06E775"/>
<stop offset="1" stop-color="#00F076"/>
</linearGradient>
</defs>
</svg>
